<?xml version="1.0" encoding="UTF-8" standalone="no"?>
<!-- Created with Inkscape (http://www.inkscape.org/) -->

<svg
   xmlns:osb="http://www.openswatchbook.org/uri/2009/osb"
   xmlns:dc="http://purl.org/dc/elements/1.1/"
   xmlns:cc="http://creativecommons.org/ns#"
   xmlns:rdf="http://www.w3.org/1999/02/22-rdf-syntax-ns#"
   xmlns:svg="http://www.w3.org/2000/svg"
   xmlns="http://www.w3.org/2000/svg"
   xmlns:sodipodi="http://sodipodi.sourceforge.net/DTD/sodipodi-0.dtd"
   xmlns:inkscape="http://www.inkscape.org/namespaces/inkscape"
   width="280.57141"
   height="309.43942"
   id="svg2"
   version="1.1"
   inkscape:version="0.48.4 r9939"
   sodipodi:docname="logo.svg">
  <defs
     id="defs4">
    <linearGradient
       id="linearGradient4001"
       osb:paint="solid">
      <stop
         style="stop-color:#000000;stop-opacity:1;"
         offset="0"
         id="stop4003" />
    </linearGradient>
    <linearGradient
       id="linearGradient3995"
       osb:paint="solid">
      <stop
         style="stop-color:#000000;stop-opacity:1;"
         offset="0"
         id="stop3997" />
    </linearGradient>
    <linearGradient
       id="linearGradient3945"
       osb:paint="solid">
      <stop
         style="stop-color:#fffbfb;stop-opacity:1;"
         offset="0"
         id="stop3947" />
    </linearGradient>
    <linearGradient
       id="linearGradient3935"
       osb:paint="solid">
      <stop
         style="stop-color:#ffffff;stop-opacity:1;"
         offset="0"
         id="stop3937" />
    </linearGradient>
  </defs>
  <sodipodi:namedview
     id="base"
     pagecolor="#ffffff"
     bordercolor="#666666"
     borderopacity="1.0"
     inkscape:pageopacity="0.0"
     inkscape:pageshadow="2"
     inkscape:zoom="0.49497475"
     inkscape:cx="-100.23651"
     inkscape:cy="-130.10076"
     inkscape:document-units="px"
     inkscape:current-layer="layer1"
     showgrid="true"
     inkscape:window-width="1280"
     inkscape:window-height="962"
     inkscape:window-x="792"
     inkscape:window-y="-8"
     inkscape:window-maximized="1"
     borderlayer="true"
     fit-margin-top="0"
     fit-margin-left="0"
     fit-margin-right="0"
     fit-margin-bottom="0">
    <inkscape:grid
       type="xygrid"
       id="grid3029"
       empspacing="5"
       visible="true"
       enabled="true"
       snapvisiblegridlinesonly="true"
       originx="-30.595698px"
       originy="-727.15198px" />
  </sodipodi:namedview>
  <metadata
     id="metadata7">
    <rdf:RDF>
      <cc:Work
         rdf:about="">
        <dc:format>image/svg+xml</dc:format>
        <dc:type
           rdf:resource="http://purl.org/dc/dcmitype/StillImage" />
        <dc:title></dc:title>
      </cc:Work>
    </rdf:RDF>
  </metadata>
  <g
     inkscape:groupmode="layer"
     id="layer3"
     inkscape:label="Envelope TopSides"
     style="display:inline"
     transform="translate(-30.595698,-15.770777)">
    <path
       inkscape:connector-curvature="0"
       style="fill:none;stroke:#333333;stroke-width:8;stroke-linecap:butt;stroke-linejoin:round;stroke-miterlimit:0;stroke-opacity:1;stroke-dasharray:none;display:inline"
       d="m 35.024271,321.21016 272.142849,0 0,-181.42856 -127,-90.71429 -18.14285,0 -126.999999,90.71429 z"
       id="path3192"
       sodipodi:nodetypes="ccccccc" />
    <path
       style="fill:none;stroke:#333333;stroke-width:8;stroke-linecap:butt;stroke-linejoin:round;stroke-miterlimit:4;stroke-opacity:1;stroke-dasharray:none"
       d="m 35,142.36218 270,0"
       id="path3975"
       inkscape:connector-curvature="0"
       sodipodi:nodetypes="cc" />
  </g>
  <g
     inkscape:label="Snowflake"
     inkscape:groupmode="layer"
     id="layer1"
     style="display:inline"
     transform="translate(-30.595698,-15.770777)">
    <g
       id="g3015"
       transform="matrix(1.3727579,-0.03219059,0.03219059,1.3727579,24.379401,1.5151312)"
       style="fill:none;stroke:#69afff;stroke-width:5.82608271;stroke-linecap:round;stroke-linejoin:round;stroke-miterlimit:4;stroke-opacity:1;stroke-dasharray:none">
      <path
         style="fill:none;stroke:#69afff;stroke-width:5.82608271;stroke-linecap:round;stroke-linejoin:round;stroke-miterlimit:4;stroke-opacity:1;stroke-dasharray:none"
         d="m 77.534797,134.83442 10.769042,6.49121 0.435448,12.6215 -13.679759,6.92796 4.628042,10.60467 16.302348,-9.04929 0.415652,14.66096 -13.297859,8.50715 5.6545,8.77135 13.520939,-9.41992 12.43011,8.71212 6.07891,-8.75572 -11.51873,-7.42236 -0.0832,-14.4301 14.35096,8.07467 5.55865,-8.95267 -12.3807,-7.36377 0.51122,-12.21063 10.93083,-6.04416"
         id="path3166"
         sodipodi:nodetypes="ccccccccccccccccccc"
         inkscape:transform-center-x="9.349818"
         inkscape:transform-center-y="56.67138"
         inkscape:connector-curvature="0" />
      <path
         transform="matrix(0.9841075,-0.1775737,0.1775737,0.9841075,-14.33106,21.665214)"
         d="M 95.406359,144.63603 62.765652,118.7403 68.87166,77.524755 l 38.74672,-15.319817 32.6407,25.895732 -6.10601,41.21555 z"
         inkscape:randomized="0"
         inkscape:rounded="0"
         inkscape:flatsided="true"
         sodipodi:arg2="2.2414734"
         sodipodi:arg1="1.7178747"
         sodipodi:r2="33.447243"
         sodipodi:r1="41.66539"
         sodipodi:cy="103.42049"
         sodipodi:cx="101.51237"
         sodipodi:sides="6"
         id="path3178"
         style="fill:none;stroke:#69afff;stroke-width:5.82608318;stroke-linecap:round;stroke-linejoin:round;stroke-miterlimit:4;stroke-opacity:1;stroke-dasharray:none"
         sodipodi:type="star" />
      <path
         inkscape:transform-center-y="-56.671378"
         inkscape:transform-center-x="-9.3498233"
         sodipodi:nodetypes="ccccccccccccccccccc"
         id="path3160"
         d="m 130.54647,75.632012 -10.76904,-6.491215 -0.43545,-12.621496 13.67976,-6.927962 -4.62804,-10.604667 -16.30235,9.049285 -0.41565,-14.660956 13.29786,-8.507151 -5.6545,-8.771351 -13.52094,9.419928 -12.430106,-8.712117 -6.078926,8.755711 11.518747,7.422356 0.08316,14.430111 -14.350964,-8.074672 -5.558654,8.952672 12.380697,7.363773 -0.323434,12.176747 -9.905793,5.27751"
         style="fill:none;stroke:#69afff;stroke-width:5.82608271;stroke-linecap:round;stroke-linejoin:round;stroke-miterlimit:4;stroke-opacity:1;stroke-dasharray:none"
         inkscape:connector-curvature="0" />
      <path
         style="fill:none;stroke:#69afff;stroke-width:5.82608271;stroke-linecap:round;stroke-linejoin:round;stroke-miterlimit:4;stroke-opacity:1;stroke-dasharray:none"
         d="m 91.658161,67.477888 -11.006079,6.08066 -11.14826,-5.933648 0.840089,-15.310994 -11.497928,-1.294335 -0.31427,18.642895 -12.904584,-6.97052 -0.718485,-15.769853 -10.423455,0.51126 1.397416,16.419439 -13.759964,6.408732 4.543211,9.642353 12.187322,-6.264336 12.538422,7.143031 -14.168353,8.390961 4.973914,9.290268 12.567563,-7.040114 10.64215,6.515731 -0.416078,12.288062"
         id="path3170"
         sodipodi:nodetypes="ccccccccccccccccccc"
         inkscape:transform-center-x="39.943696"
         inkscape:transform-center-y="-34.481042"
         inkscape:connector-curvature="0" />
      <path
         inkscape:transform-center-y="34.48104"
         inkscape:transform-center-x="-39.943697"
         sodipodi:nodetypes="ccccccccccccccccccc"
         id="path3164"
         d="m 116.42311,142.98855 11.00608,-6.08066 11.14826,5.93364 -0.84009,15.311 11.49793,1.29433 0.31427,-18.64289 12.90458,6.97052 0.71848,15.76985 10.42346,-0.51126 -1.39742,-16.41943 13.75997,-6.40874 -4.54321,-9.64236 -12.18733,6.26435 -12.53842,-7.14304 14.16836,-8.39096 -4.97392,-9.29027 -12.56756,7.04011 -10.45437,-6.5496 0.31443,-12.851411"
         style="fill:none;stroke:#69afff;stroke-width:5.82608271;stroke-linecap:round;stroke-linejoin:round;stroke-miterlimit:4;stroke-opacity:1;stroke-dasharray:none"
         inkscape:connector-curvature="0" />
      <path
         id="path3172"
         d="m 63.542162,82.002484 25.738163,13.066539 m 32.335895,18.969777 24.15613,17.49883"
         style="fill:none;stroke:#69afff;stroke-width:5.82608271;stroke-linecap:round;stroke-linejoin:round;stroke-miterlimit:4;stroke-opacity:1;stroke-dasharray:none"
         inkscape:connector-curvature="0"
         sodipodi:nodetypes="cccc" />
      <path
         style="fill:none;stroke:#69afff;stroke-width:5.82608271;stroke-linecap:round;stroke-linejoin:round;stroke-miterlimit:4;stroke-opacity:1;stroke-dasharray:none"
         d="m 142.92895,113.38735 0.23703,-12.57188 10.71282,-6.687851 12.83967,8.383041 6.86989,-9.310337 -15.98809,-9.593609 12.48893,-7.690446 14.01634,7.262708 4.76897,-9.282611 -14.91836,-6.999515 1.32986,-15.120848 -10.62214,-0.886648 -0.66858,13.686707 -12.45526,7.287074 -0.1826,-16.465636 -10.53257,-0.337601 -0.18687,14.403885 -11.37502,5.541005 -10.20696,-6.68722"
         id="path3162"
         sodipodi:nodetypes="ccccccccccccccccccc"
         inkscape:transform-center-x="-54.141652"
         inkscape:transform-center-y="-13.956972"
         inkscape:connector-curvature="0" />
      <path
         id="path3158"
         d="m 104.78053,55.367165 c -0.68291,29.122409 -0.25609,10.920903 -0.68291,29.122409 m -0.939,40.043316 c 0,0 0,0 -0.66624,31.48913"
         style="fill:none;stroke:#69afff;stroke-width:5.82608271;stroke-linecap:round;stroke-linejoin:round;stroke-miterlimit:4;stroke-opacity:1;stroke-dasharray:none"
         inkscape:connector-curvature="0"
         sodipodi:nodetypes="cccc" />
      <path
         inkscape:transform-center-y="13.956972"
         inkscape:transform-center-x="54.141651"
         sodipodi:nodetypes="ccccccccccccccccccc"
         id="path3168"
         d="m 65.152323,97.079089 -0.237033,12.571871 -10.71282,6.68786 -12.839666,-8.38304 -6.86989,9.31033 15.988085,9.59361 -12.48894,7.69044 -14.016336,-7.2627 -4.768961,9.28261 14.918357,6.99952 -1.329857,15.12084 10.622129,0.88665 0.668588,-13.6867 12.455256,-7.28708 0.182609,16.46563 10.532566,0.3376 0.186863,-14.40388 10.897823,-6.03658 9.985292,6.53333"
         style="fill:none;stroke:#69afff;stroke-width:5.82608271;stroke-linecap:round;stroke-linejoin:round;stroke-miterlimit:4;stroke-opacity:1;stroke-dasharray:none"
         inkscape:connector-curvature="0" />
      <path
         id="path3174"
         d="m 85.127843,116.82547 -22.879423,13.884 m 59.79461,-34.872176 c 7.36597,-3.469574 22.0979,-10.408722 25.02306,-13.006659"
         style="fill:none;stroke:#69afff;stroke-width:5.82608271;stroke-linecap:round;stroke-linejoin:round;stroke-miterlimit:4;stroke-opacity:1;stroke-dasharray:none"
         inkscape:connector-curvature="0"
         sodipodi:nodetypes="cccc" />
      <path
         transform="matrix(0.9841075,-0.1775737,0.1775737,0.9841075,-16.438014,21.296629)"
         d="M 127.84452,126.69964 96.463655,136.78434 72.039627,114.65006 78.996458,82.431093 110.37732,72.346401 134.80135,94.480677 z"
         inkscape:randomized="0"
         inkscape:rounded="0"
         inkscape:flatsided="true"
         sodipodi:arg2="1.2598562"
         sodipodi:arg1="0.73625743"
         sodipodi:r2="28.545481"
         sodipodi:r1="32.961483"
         sodipodi:cy="104.56537"
         sodipodi:cx="103.42049"
         sodipodi:sides="6"
         id="path3156"
         style="fill:none;stroke:#69afff;stroke-width:5.82608318;stroke-linecap:round;stroke-linejoin:round;stroke-miterlimit:4;stroke-opacity:1;stroke-dasharray:none"
         sodipodi:type="star" />
      <path
         transform="matrix(0.9841075,-0.1775737,0.1775737,0.9841075,-17.033189,20.147302)"
         d="m 118.30388,117.92226 -18.15729,6.26208 -14.501768,-12.59364 3.655529,-18.855719 18.157299,-6.262077 14.50176,12.593639 z"
         inkscape:randomized="0"
         inkscape:rounded="0"
         inkscape:flatsided="true"
         sodipodi:arg2="1.2386905"
         sodipodi:arg1="0.71509174"
         sodipodi:r2="16.61281"
         sodipodi:r1="19.206795"
         sodipodi:cy="105.32862"
         sodipodi:cx="103.80212"
         sodipodi:sides="6"
         id="path2384"
         style="fill:none;stroke:#69afff;stroke-width:5.82608318;stroke-linecap:round;stroke-linejoin:round;stroke-miterlimit:4;stroke-opacity:1;stroke-dasharray:none"
         sodipodi:type="star" />
    </g>
    <path
       style="fill:#cadfff;fill-opacity:1"
       d="m 169.89569,101.23485 c -11.71187,6.77101 -23.77483,13.11707 -35.31457,20.08689 -1.56627,2.9108 -0.66637,6.73416 -1.10993,10.02814 -0.16895,10.88215 -0.28148,21.86111 0.24659,32.68349 1.86617,2.86427 5.89912,3.77584 8.61306,5.86908 8.98989,5.2127 17.7985,10.77788 26.99664,15.60121 3.43051,-0.031 6.19342,-2.97787 9.31457,-4.21744 9.30474,-5.26003 18.82619,-10.31643 27.89403,-15.88523 1.59787,-3.03694 0.26878,-7.02962 0.70368,-10.43866 -0.12311,-10.68876 0.24572,-21.46967 -0.18279,-32.10124 -1.85166,-2.87683 -5.90246,-3.78741 -8.6162,-5.88576 -9.02921,-5.21024 -17.88734,-10.88894 -27.02298,-15.80773 -0.54371,-0.0787 -1.01639,-0.29463 -1.5221,0.0673 z m 1.04172,13.36873 c 7.99241,4.60032 16.55189,8.67456 24.10161,13.95273 0.61962,9.42458 0.25118,18.98485 0.36302,28.45789 -8.32417,4.76586 -16.62728,10.16912 -24.96971,14.50516 -8.44701,-4.52369 -16.68884,-9.34838 -25.06441,-14.06321 0.0105,-9.67011 0.0211,-19.34022 0.0316,-29.01032 8.29544,-4.74994 16.36882,-9.98605 24.89079,-14.18949 l 0.44505,0.23881 0.20208,0.10843 z"
       id="path3914"
       inkscape:connector-curvature="0" />
    <path
       style="fill:#cadfff;fill-opacity:1;display:inline"
       d="m 187.36229,23.168974 c -5.77114,3.5124 -10.99329,7.878056 -16.60439,11.648322 -5.16793,-3.112069 -10.05882,-6.817755 -15.19963,-9.81742 -3.3804,-0.483847 -4.89289,3.737668 -6.45551,6.029348 -1.66487,2.283508 0.76499,4.318165 2.7937,5.019195 3.62375,2.185854 7.2213,4.414664 10.82757,6.629126 0.41774,7.705318 0.70671,15.421053 0.64713,23.138807 -6.56618,-3.352316 -12.95976,-7.23464 -19.6154,-10.30419 -3.08761,-0.03351 -3.67811,4.181003 -5.1649,6.374065 -1.41035,2.010419 -0.30797,4.523262 2.0668,5.052044 4.15971,2.28822 8.27596,4.652372 12.42257,7.022436 0,6.271365 0,12.542726 0,18.814091 -5.07755,2.908598 -10.15461,5.818065 -15.2312,8.728352 -5.66129,-2.861669 -11.32236,-5.723744 -16.98319,-8.586299 -0.0219,-6.576411 0.90227,-13.299426 0.26706,-19.783661 -1.86255,-2.037391 -5.31514,-0.698064 -7.87119,-1.489602 -3.70911,-1.51697 -5.13225,2.220765 -4.37565,5.268658 -0.0221,6.897413 0.0744,13.797492 -0.15784,20.692344 -6.89082,-3.468404 -13.758077,-6.973457 -20.629197,-10.480333 -0.83218,-6.620888 -0.59247,-13.490964 -1.91326,-19.9651 -2.15247,-1.842278 -5.65768,-0.556576 -8.37767,-0.443138 -3.84696,1.118799 -1.5496,5.844894 -1.65985,8.58806 0.31944,4.480647 1.30087,9.206308 1.2179,13.556378 -5.43032,3.371995 -11.76632,5.326191 -16.99647,8.896055 -0.92722,2.771288 1.81485,5.523978 2.96482,8.071338 1.90616,3.23607 5.45803,-0.099 7.74977,-1.08907 3.16589,-1.50575 6.29106,-3.88983 9.53331,-4.813996 6.67878,3.423586 13.73522,7.051156 19.950517,10.748646 -6.008807,4.26114 -12.863837,7.56876 -18.534677,12.28366 -0.96065,3.16851 2.33809,5.82975 3.41395,8.58231 2.74814,2.509 5.71899,-1.71757 8.39521,-2.63677 2.9883,-1.76526 5.96294,-3.55617 9.014137,-5.19191 5.44613,2.93587 10.76788,6.10372 16.13088,9.20186 0,5.89255 0,11.78511 0,17.67767 -5.35955,3.55371 -10.62154,7.12169 -16.05196,10.55925 -5.523347,-3.02531 -10.582767,-7.05088 -16.312717,-9.58882 -3.33168,0.47386 -5.04578,4.33771 -6.74717,6.85825 -1.7971,2.75159 1.4779,4.58076 3.58768,5.54337 5.73553,3.39641 11.62701,6.58998 17.341417,10.05086 -6.438257,4.19851 -12.878557,8.6839 -19.540137,12.35858 -6.1955,-2.22719 -11.80137,-6.08234 -17.97254,-8.15017 -2.67086,0.99027 -3.39579,4.69042 -4.47179,7.21894 -1.00744,3.69925 4.07397,4.07178 6.25481,5.5154 4.08773,1.91416 8.38217,3.58222 12.36988,5.64363 0.13519,6.25604 -0.85285,12.44063 -0.63134,18.68782 1.6552,2.93179 5.8467,1.44953 8.57583,2.2404 4.05373,0.25751 2.47728,-4.87426 2.81995,-7.41743 0.0518,-3.60247 0.1644,-7.15652 0.58399,-10.73287 6.46234,-3.92778 12.813097,-8.03957 19.366517,-11.80616 0.53481,7.32314 0.2526,14.74735 1.13643,22.00238 1.90691,2.94005 6.25769,1.34562 9.17029,1.81512 3.54271,-1.11485 1.43621,-5.79553 2.00452,-8.57051 0,-3.60919 0,-7.21838 0,-10.82757 5.4169,-3.08117 10.63729,-6.32891 16.16244,-9.18608 5.07342,2.8845 10.38805,5.84502 15.07337,9.09137 0.70283,6.28034 0.92159,12.60413 1.32582,18.9088 -5.41975,2.96068 -11.20871,6.02127 -16.46233,8.8704 -1.8306,2.71629 0.96518,5.87675 1.81512,8.52316 0.62637,2.12888 3.00618,3.872 4.98763,2.11501 6.57977,-3.52089 13.18356,-7.81163 19.60327,-11.0959 0.5382,7.62893 0.78892,15.27953 1.43631,22.91784 -5.35035,3.69476 -10.88059,7.17511 -16.05195,11.09589 -1.5614,2.82922 1.80668,5.20651 3.04624,7.56037 1.54449,2.98027 4.75069,0.68438 6.45548,-0.84692 4.38998,-3.14761 8.70129,-6.40091 13.16358,-9.39666 5.21511,2.9656 10.19331,7.04518 15.48374,9.77007 3.21554,0.52993 4.47882,-3.64936 6.13983,-5.68211 1.91326,-2.66921 -1.07131,-4.90346 -3.29878,-5.85573 -3.39719,-2.09269 -6.82106,-4.14167 -10.22779,-6.21875 -0.26293,-7.69671 -0.60915,-15.39139 -0.75761,-23.09146 6.48434,3.22429 12.81858,6.87116 19.3823,9.99104 3.1805,0.28172 3.85081,-3.75694 5.47692,-5.69789 1.6636,-1.83768 0.79053,-4.52092 -1.58222,-5.16618 -4.30396,-2.51127 -8.65924,-4.93942 -12.98608,-7.41338 0,-6.12404 0,-12.24809 0,-18.37214 4.98425,-3.26718 10.2531,-6.07292 15.37326,-9.12294 5.69041,2.82946 11.34343,5.67323 17.04633,8.47581 0.0196,6.5024 -0.94072,13.15278 -0.31442,19.56269 2.58976,2.21936 6.8291,1.44836 10.14762,2.12402 3.68128,-0.67134 1.68982,-5.42187 2.19393,-8.04965 0.005,-6.02421 -0.0418,-12.04974 0.12627,-18.07226 6.89392,3.44001 13.802,6.92685 20.59764,10.48033 0.78138,6.51881 0.38237,13.29916 1.89807,19.65952 1.84773,2.42321 5.55722,0.48575 8.21924,0.55931 3.64196,-0.55674 1.94496,-4.95869 1.91671,-7.44455 -0.18647,-4.80916 -1.75065,-9.66672 -1.20645,-14.43156 2.31519,-2.49869 6.3246,-3.02868 9.1819,-4.87842 2.46359,-1.63479 6.2184,-2.19022 7.56454,-5.01792 -0.23967,-3.26224 -2.07808,-6.55376 -4.1511,-8.96511 -3.64092,0.2858 -6.54754,3.31413 -9.91867,4.69125 -2.0073,0.96679 -3.92877,2.39075 -6.08593,2.94803 -6.74039,-3.48977 -13.47332,-7.13692 -20.13992,-10.7013 6.11189,-4.01818 12.50886,-7.62676 18.46685,-11.86929 1.69302,-2.77214 -1.42987,-5.58658 -2.58852,-7.98652 -1.84227,-3.18976 -5.3705,-0.62695 -7.5067,0.76065 -3.55862,1.95911 -6.89808,4.35267 -10.61291,6.01053 -5.30219,-3.03019 -10.58067,-6.27961 -15.86255,-9.42283 0.0137,-5.89255 0.0188,-11.78511 0.0158,-17.67767 5.333,-3.47001 10.6678,-6.93727 16.00461,-10.40142 5.51684,3.19075 10.69451,7.21754 16.42831,9.88292 2.9495,0.14305 3.89571,-3.69702 5.60735,-5.55887 1.6891,-1.85117 2.02084,-5.24669 -0.90138,-6.12338 -6.27783,-3.70381 -12.71716,-7.1563 -18.90879,-11.0012 6.35017,-4.31829 12.8223,-8.4464 19.25603,-12.642681 5.81169,2.698361 11.47927,5.743851 17.39357,8.191691 3.18822,-0.15503 3.63679,-4.2417 5.09811,-6.42392 1.69565,-2.549215 -1.35595,-4.408396 -3.5671,-4.987632 -5.07042,-2.273435 -10.20245,-4.408089 -15.19964,-6.834314 0.11363,-6.268537 0.95298,-12.600678 1.0931,-18.873783 -1.18771,-3.088036 -5.51284,-1.155632 -8.11681,-1.692291 -4.38214,-0.549663 -3.08554,4.881052 -3.53554,7.576144 -0.18357,3.406537 -0.3479,6.815671 -0.34724,10.227794 -6.53159,4.024165 -13.06462,8.046002 -19.60327,12.058696 -0.43101,-7.417509 -0.33743,-14.933186 -0.80506,-22.296945 -1.60602,-2.880653 -5.87223,-0.937888 -8.63355,-1.504774 -4.26095,-0.01807 -2.35604,5.352026 -2.77252,8.065427 -0.009,3.719674 -0.004,7.439359 -0.005,11.159039 -5.67467,2.91927 -11.34618,5.844641 -17.01476,8.775689 -4.48418,-3.092051 -9.50218,-5.646156 -14.04743,-8.428449 -1.4381,-5.887013 -0.88047,-12.282324 -1.52006,-18.386585 0.92734,-2.427701 5.0608,-3.042083 7.25719,-4.749604 3.06381,-1.975833 6.89438,-3.195716 9.58355,-5.589865 1.4731,-2.623895 -1.6398,-5.311036 -2.31721,-7.884295 -0.63608,-3.717955 -4.32255,-3.446637 -6.54217,-1.236629 -6.01455,3.482163 -11.97318,7.062625 -18.03071,10.462374 -0.5187,-7.755787 -0.8958,-15.562988 -1.01015,-23.359778 5.21084,-3.578768 10.52392,-7.021151 15.68893,-10.653953 1.68814,-2.824828 -1.7761,-5.297307 -3.04624,-7.576144 -0.72298,-1.068898 -1.76725,-1.845362 -3.14094,-1.467878 z m -16.3045,50.886435 c 2.55834,0.02707 1.4522,3.457126 1.77674,5.066465 0.35113,5.808014 -0.3051,11.808578 0.62257,17.493469 4.62358,3.655317 10.35752,6.238567 15.39971,9.488687 7.2054,3.94167 13.93212,8.91843 21.58115,11.94035 3.63983,0.0996 6.433,-3.21559 9.6704,-4.55021 3.13273,-1.665 6.23961,-4.02539 9.56985,-5.06202 1.49695,0.55564 2.35888,2.87383 0.50507,3.6618 -5.39347,4.22013 -11.98727,6.82819 -17.28412,11.04709 -0.93483,5.51062 -0.37045,11.47578 -0.72942,17.15807 -0.0163,8.08525 -0.61336,16.2827 0.2054,24.29686 2.0907,2.88606 6.25005,3.82132 9.14293,5.94479 3.13903,2.16942 7.42068,3.51159 9.58067,6.70804 0.0487,1.95222 -2.69431,2.85768 -4.00905,1.29426 -5.68024,-2.76127 -11.0177,-6.51326 -16.778,-8.91775 -3.7073,0.26012 -6.68654,3.32001 -10.08476,4.69726 -8.89931,5.09228 -18.05647,9.92245 -26.74503,15.29493 -1.60531,3.02423 -0.34535,7.00901 -0.81732,10.40637 -0.3293,4.50957 0.40012,9.34836 -0.7229,13.66934 -1.40824,1.50098 -4.35305,0.1523 -3.29566,-2.14609 -0.28094,-6.976 -0.0556,-14.05829 -0.63933,-20.96965 -2.05432,-2.91228 -6.198,-3.91985 -9.06242,-6.08801 -8.15141,-4.67878 -16.14165,-9.80785 -24.40293,-14.18957 -3.25775,0.0851 -5.87376,3.14724 -8.86993,4.41257 -3.83759,1.85312 -7.13999,5.05316 -11.24529,6.21393 -2.25137,0.0992 -2.69548,-3.42069 -0.41038,-3.96169 4.53292,-3.46837 10.13913,-5.70628 14.52199,-9.32666 0.98591,-5.65271 0.56564,-11.75626 0.89125,-17.58437 0.0443,-8.75725 0.37887,-17.60732 -0.0492,-26.30871 -1.87118,-2.84658 -5.95517,-3.68895 -8.70338,-5.71636 -2.70466,-1.83203 -6.22075,-3.0456 -8.12858,-5.74524 -0.10873,-1.7369 1.88748,-2.78108 3.33035,-1.65728 5.28529,2.04542 9.73986,6.0794 15.10494,7.70241 12.20334,-6.79969 24.57047,-13.53743 36.51412,-20.702444 1.61024,-3.017801 0.41168,-6.997766 0.91383,-10.388874 0.33756,-4.011063 -0.29723,-8.483609 0.662,-12.201153 0.54792,-0.509686 1.19798,-0.999217 1.98469,-0.98061 z"
       id="path3912"
       inkscape:connector-curvature="0" />
  </g>
  <g
     inkscape:groupmode="layer"
     id="layer2"
     inkscape:label="Envelope"
     style="display:inline"
     transform="translate(-30.595698,-15.770777)">
    <g
       id="g2994"
       transform="matrix(18.142857,0,0,18.142857,25.524269,39.99592)"
       style="fill:none;display:inline">
      <path
         id="path3198"
         style="fill:none;stroke:#333333;stroke-width:0.44094488;stroke-linecap:butt;stroke-linejoin:round;stroke-miterlimit:0;stroke-opacity:1;stroke-dasharray:none"
         d="m 15.5,5.5 -7,6 -1,0 -7,-6"
         inkscape:connector-curvature="0"
         sodipodi:nodetypes="cccc" />
      <path
         id="path3196"
         style="fill:#ffffff;fill-opacity:1;stroke:#333333;stroke-width:0.44094488;stroke-linecap:butt;stroke-linejoin:round;stroke-miterlimit:0;stroke-opacity:1;stroke-dasharray:none"
         d="m 15.5,15.5 -15,0 7,-6 1,0 7,6 z"
         inkscape:connector-curvature="0" />
    </g>
    <path
       style="fill:none;stroke:none"
       d="m 38.693554,147.95238 c -2.398288,2.16535 -0.93942,5.958 -1.486328,8.79109 -0.370952,51.05283 -0.349297,102.11236 0.09737,153.16477 -0.73957,2.46757 2.234553,4.80064 4.049813,2.51771 29.712045,-25.34473 59.548501,-50.62164 88.897501,-76.37897 1.77848,-2.0367 5.99407,-4.2197 4.56397,-7.32975 C 117.32251,213.22126 99.221274,198.11377 81.455281,182.80239 67.931269,171.24988 54.424063,159.65907 40.855912,148.17335 c -0.745275,-0.29051 -1.382424,-0.6476 -2.162358,-0.22097 z"
       id="path3941"
       inkscape:connector-curvature="0" />
    <path
       style="fill:none;stroke:none"
       d="m 38.693554,147.95238 c -2.398288,2.16535 -0.93942,5.958 -1.486328,8.79109 -0.370952,51.05283 -0.349297,102.11236 0.09737,153.16477 -0.73957,2.46757 2.234553,4.80064 4.049813,2.51771 29.712045,-25.34473 59.548501,-50.62164 88.897501,-76.37897 1.77848,-2.0367 5.99407,-4.2197 4.56397,-7.32975 C 117.32251,213.22126 99.221274,198.11377 81.455281,182.80239 67.931269,171.24988 54.424063,159.65907 40.855912,148.17335 c -0.745275,-0.29051 -1.382424,-0.6476 -2.162358,-0.22097 z"
       id="path3943"
       inkscape:connector-curvature="0" />
    <path
       style="fill:#ffffff;fill-opacity:1;stroke:none"
       d="m 256.25498,272.36524 c -25.64376,-21.982 -47.08334,-40.42558 -47.6435,-40.98574 l -1.01847,-1.01848 47.56095,-40.77128 c 26.15852,-22.4242 47.6556,-40.67662 47.7713,-40.56092 0.11569,0.11569 0.15284,36.90635 0.0826,81.75702 l -0.1278,81.54666 -46.62503,-39.96726 z"
       id="path3953"
       inkscape:connector-curvature="0" />
    <path
       style="fill:#fff9f9;fill-opacity:1;stroke:none"
       d="m 39.482736,230.4394 c 0,-49.85517 0.180076,-80.47818 0.472184,-80.29764 1.707676,1.0554 93.6866,80.19403 93.53529,80.47772 -0.23995,0.44986 -93.511632,80.4094 -93.796448,80.4094 -0.116064,0 -0.211026,-36.26527 -0.211026,-80.58948 z"
       id="path3955"
       inkscape:connector-curvature="0" />
  </g>
</svg>
